<svg width="180" height="180" viewBox="0 0 180 180" fill="none" xmlns="http://www.w3.org/2000/svg">
<rect width="180" height="180" rx="90" fill="white"/>
<path d="M128.467 125.148C123.331 125.148 118.58 124.249 114.215 122.452C109.914 120.654 106.126 118.151 102.852 114.941C99.5777 111.731 97.0419 108.007 95.2444 103.77C93.4469 99.4691 92.5481 94.8469 92.5481 89.9037C92.5481 84.8963 93.4469 80.274 95.2444 76.037C97.0419 71.8 99.5456 68.1086 102.756 64.9629C105.965 61.753 109.721 59.2814 114.022 57.5481C118.388 55.7506 123.138 54.8518 128.274 54.8518C133.346 54.8518 138.032 55.7506 142.333 57.5481C146.699 59.2814 150.486 61.753 153.696 64.9629C156.97 68.1086 159.506 71.8321 161.304 76.1333C163.101 80.3703 164 84.9926 164 90C164 94.9432 163.101 99.5654 161.304 103.867C159.506 108.104 157.002 111.827 153.793 115.037C150.583 118.183 146.795 120.654 142.43 122.452C138.128 124.249 133.474 125.148 128.467 125.148ZM128.274 111.378C132.318 111.378 135.849 110.479 138.867 108.681C141.948 106.884 144.323 104.38 145.993 101.17C147.662 97.8963 148.496 94.1407 148.496 89.9037C148.496 86.6938 148.015 83.8049 147.052 81.237C146.089 78.6049 144.709 76.358 142.911 74.4963C141.114 72.5703 138.963 71.1259 136.459 70.1629C134.02 69.1358 131.291 68.6222 128.274 68.6222C124.23 68.6222 120.667 69.5209 117.585 71.3185C114.568 73.0518 112.225 75.5234 110.556 78.7333C108.886 81.879 108.052 85.6024 108.052 89.9037C108.052 93.1136 108.533 96.0345 109.496 98.6666C110.459 101.299 111.807 103.578 113.541 105.504C115.338 107.365 117.489 108.81 119.993 109.837C122.496 110.864 125.257 111.378 128.274 111.378Z" fill="#1F2225"/>
<path d="M51.5333 125.052C46.5901 125.052 41.9358 124.153 37.5704 122.355C33.2691 120.558 29.5136 118.086 26.3037 114.941C23.0938 111.731 20.558 108.007 18.6963 103.77C16.8988 99.4691 16 94.8468 16 89.9036C16 84.9604 16.9309 80.3703 18.7926 76.1333C20.6543 71.8962 23.2222 68.2049 26.4963 65.0592C29.8346 61.8493 33.7185 59.3777 38.1482 57.6444C42.5778 55.8468 47.3284 54.9481 52.4 54.9481C58.242 54.9481 63.5383 56.0073 68.2889 58.1258C73.1037 60.2444 77.084 63.1653 80.2297 66.8888L69.9259 77.1925C67.7432 74.3678 65.1753 72.2493 62.2222 70.8369C59.2692 69.4246 55.9309 68.7184 52.2074 68.7184C48.2272 68.7184 44.6642 69.6172 41.5185 71.4147C38.3728 73.1481 35.9012 75.6197 34.1037 78.8296C32.3704 81.9752 31.5037 85.6666 31.5037 89.9036C31.5037 94.1407 32.3704 97.8641 34.1037 101.074C35.837 104.284 38.2124 106.788 41.2296 108.585C44.2469 110.383 47.7136 111.281 51.6296 111.281C55.6099 111.281 58.9803 110.543 61.7408 109.067C64.5654 107.526 66.7161 105.343 68.1926 102.518C69.7334 99.6296 70.5037 96.1308 70.5037 92.0221L80.5185 98.7629L50.1852 98.2814V85.474H85.9111V87.6888C85.9111 95.8419 84.4346 102.711 81.4815 108.296C78.5926 113.817 74.5482 117.99 69.3482 120.815C64.2124 123.639 58.2741 125.052 51.5333 125.052Z" fill="#1F2225"/>
</svg>
